<svg xmlns="http://www.w3.org/2000/svg" width="253" height="86" viewBox="0 0 253 86" role="img" aria-label="Nutrição"><svg x="-1" y="0" xmlns="http://www.w3.org/2000/svg" width="255" height="86" viewBox="0 0 255 86"><g fill="#2F5D50"><path d="M43.88 23.69L43.88 24.97Q41.70 25.03 40.58 25.61Q39.46 26.18 39.08 27.46Q38.70 28.74 38.70 31.11L38.70 69.32Q38.31 69.32 37.96 69.32Q37.61 69.32 37.22 69.32L10.34 27.78L10.34 61.58Q10.34 63.88 10.76 65.19Q11.18 66.50 12.42 67.05Q13.67 67.59 16.17 67.72L16.17 69Q15.02 68.87 13.16 68.84Q11.30 68.81 9.64 68.81Q8.04 68.81 6.41 68.84Q4.78 68.87 3.69 69L3.69 67.72Q5.86 67.59 6.98 67.05Q8.10 66.50 8.49 65.19Q8.87 63.88 8.87 61.58L8.87 30.47Q8.87 28.10 8.49 26.98Q8.10 25.86 6.98 25.45Q5.86 25.03 3.69 24.97L3.69 23.69Q4.78 23.75 6.41 23.82Q8.04 23.88 9.64 23.88Q11.05 23.88 12.33 23.82Q13.61 23.75 14.63 23.69L37.22 58.50L37.22 31.11Q37.22 28.74 36.81 27.46Q36.39 26.18 35.14 25.61Q33.90 25.03 31.40 24.97L31.40 23.69Q32.55 23.75 34.44 23.82Q36.33 23.88 37.93 23.88Q39.59 23.88 41.22 23.82Q42.86 23.75 43.88 23.69"/><path d="M76.91 35.34L76.91 62.09Q76.91 64.97 77.97 66.34Q79.02 67.72 81.78 67.72L81.78 69.06Q79.79 68.87 77.81 68.87Q75.95 68.87 74.26 69.06Q72.56 69.26 71.15 69.77L71.15 62.22Q69.55 66.38 66.64 68.14Q63.73 69.90 60.66 69.90Q58.42 69.90 56.75 69.26Q55.09 68.62 54 67.46Q52.78 66.18 52.34 64.14Q51.89 62.09 51.89 59.08L51.89 43.02Q51.89 40.14 50.86 38.76Q49.84 37.38 47.02 37.38L47.02 36.04Q49.07 36.23 50.99 36.23Q52.85 36.23 54.54 36.01Q56.24 35.78 57.65 35.34L57.65 60.49Q57.65 62.47 57.90 64.14Q58.16 65.80 59.18 66.82Q60.21 67.85 62.51 67.85Q65.01 67.85 66.96 66.31Q68.91 64.78 70.03 62.15Q71.15 59.53 71.15 56.26L71.15 43.02Q71.15 40.14 70.13 38.76Q69.10 37.38 66.29 37.38L66.29 36.04Q68.34 36.23 70.26 36.23Q72.11 36.23 73.81 36.01Q75.50 35.78 76.91 35.34"/><path d="M95.16 25.42L95.16 36.10L104.63 36.10L104.63 37.38L95.16 37.38L95.16 62.15Q95.16 65.16 96.25 66.38Q97.34 67.59 99.26 67.59Q101.18 67.59 102.58 66.02Q103.99 64.46 105.02 60.74L106.30 61.06Q105.66 64.78 103.77 67.34Q101.88 69.90 97.98 69.90Q95.80 69.90 94.39 69.35Q92.98 68.81 91.90 67.78Q90.49 66.31 89.94 64.26Q89.40 62.22 89.40 58.82L89.40 37.38L83.26 37.38L83.26 36.10L89.40 36.10L89.40 26.31Q91 26.25 92.47 26.06Q93.94 25.86 95.16 25.42"/><path d="M127.76 35.14Q129.49 35.14 130.80 35.85Q132.11 36.55 132.85 37.67Q133.58 38.79 133.58 40.20Q133.58 41.80 132.59 43.02Q131.60 44.23 129.94 44.23Q128.59 44.23 127.57 43.37Q126.54 42.50 126.54 40.90Q126.54 39.69 127.22 38.82Q127.89 37.96 128.72 37.45Q128.27 36.81 127.38 36.81Q125.39 36.81 123.73 37.99Q122.06 39.18 120.91 41.03Q119.76 42.89 119.12 44.97Q118.48 47.05 118.48 48.84L118.48 62.41Q118.48 65.54 120.30 66.60Q122.13 67.66 125.26 67.66L125.26 69Q123.79 68.94 121.10 68.84Q118.42 68.74 115.41 68.74Q113.23 68.74 111.09 68.84Q108.94 68.94 107.86 69L107.86 67.66Q110.48 67.66 111.60 66.70Q112.72 65.74 112.72 63.05L112.72 43.02Q112.72 40.14 111.70 38.76Q110.67 37.38 107.86 37.38L107.86 36.04Q109.90 36.23 111.82 36.23Q113.68 36.23 115.38 36.01Q117.07 35.78 118.48 35.34L118.48 43.34Q119.18 41.48 120.50 39.59Q121.81 37.70 123.66 36.42Q125.52 35.14 127.76 35.14"/><path d="M144.15 20.04Q145.82 20.04 147.03 21.26Q148.25 22.47 148.25 24.14Q148.25 25.80 147.03 27.02Q145.82 28.23 144.15 28.23Q142.49 28.23 141.27 27.02Q140.06 25.80 140.06 24.14Q140.06 22.47 141.27 21.26Q142.49 20.04 144.15 20.04M147.48 35.34L147.48 63.05Q147.48 65.74 148.60 66.70Q149.72 67.66 152.34 67.66L152.34 69Q151.26 68.94 149.05 68.84Q146.84 68.74 144.60 68.74Q142.42 68.74 140.18 68.84Q137.94 68.94 136.86 69L136.86 67.66Q139.48 67.66 140.60 66.70Q141.72 65.74 141.72 63.05L141.72 43.02Q141.72 40.14 140.70 38.76Q139.67 37.38 136.86 37.38L136.86 36.04Q138.90 36.23 140.82 36.23Q142.68 36.23 144.38 36.01Q146.07 35.78 147.48 35.34"/><path d="M170.86 35.14Q172.90 35.14 174.82 35.66Q176.74 36.17 178.28 37.19Q179.75 38.15 180.52 39.40Q181.29 40.65 181.29 42.12Q181.29 43.85 180.33 44.78Q179.37 45.70 177.90 45.70Q176.49 45.70 175.43 44.87Q174.38 44.04 174.38 42.50Q174.38 41.03 175.18 40.14Q175.98 39.24 177.06 38.98Q176.42 37.83 174.79 37.06Q173.16 36.30 171.30 36.30Q169.70 36.30 168.10 37.06Q166.50 37.83 165.16 39.59Q163.82 41.35 162.98 44.39Q162.15 47.43 162.15 51.98Q162.15 57.61 163.43 60.94Q164.71 64.26 166.79 65.70Q168.87 67.14 171.37 67.14Q173.03 67.14 174.76 66.50Q176.49 65.86 178.02 64.42Q179.56 62.98 180.65 60.55L181.86 61Q181.22 63.05 179.75 65.13Q178.28 67.21 175.91 68.55Q173.54 69.90 170.09 69.90Q166.12 69.90 162.92 67.85Q159.72 65.80 157.83 61.99Q155.94 58.18 155.94 52.94Q155.94 47.69 157.83 43.69Q159.72 39.69 163.11 37.42Q166.50 35.14 170.86 35.14M168.23 68.62L169.96 68.62L168.30 73.61Q169.13 73.42 170.09 73.29Q171.05 73.16 172.07 73.16Q173.86 73.16 174.92 73.93Q175.98 74.70 175.98 76.17Q175.98 77.96 174.79 79.02Q173.61 80.07 171.94 80.55Q170.28 81.03 168.74 81.03Q166.95 81.03 165.64 80.81Q164.33 80.58 163.43 80.33L163.69 79.18Q164.01 79.24 164.68 79.30Q165.35 79.37 166.12 79.37Q167.40 79.37 168.71 79.11Q170.02 78.86 170.95 78.25Q171.88 77.64 171.88 76.49Q171.88 74.70 169.19 74.70Q168.68 74.70 167.72 74.79Q166.76 74.89 166.06 75.14"/><path d="M194.94 69.45Q192.32 69.45 190.40 68.46Q188.48 67.46 187.49 65.67Q186.50 63.88 186.50 61.51Q186.50 58.70 187.81 56.90Q189.12 55.11 191.17 54.02Q193.22 52.94 195.49 52.20Q197.76 51.46 199.81 50.79Q201.86 50.12 203.17 49.22Q204.48 48.33 204.48 46.86L204.48 42.89Q204.48 40.20 203.68 38.79Q202.88 37.38 201.54 36.90Q200.19 36.42 198.53 36.42Q196.93 36.42 195.10 36.87Q193.28 37.32 192.19 38.73Q193.41 38.98 194.30 40.01Q195.20 41.03 195.20 42.63Q195.20 44.23 194.18 45.16Q193.15 46.09 191.55 46.09Q189.70 46.09 188.83 44.90Q187.97 43.72 187.97 42.25Q187.97 40.58 188.80 39.56Q189.63 38.54 190.91 37.64Q192.38 36.62 194.72 35.88Q197.06 35.14 200 35.14Q202.62 35.14 204.48 35.75Q206.34 36.36 207.55 37.51Q209.22 39.05 209.73 41.26Q210.24 43.46 210.24 46.54L210.24 64.33Q210.24 65.93 210.72 66.63Q211.20 67.34 212.22 67.34Q212.93 67.34 213.57 67.02Q214.21 66.70 215.10 65.99L215.81 67.08Q214.46 68.10 213.25 68.78Q212.03 69.45 209.98 69.45Q208.13 69.45 206.91 68.81Q205.70 68.17 205.09 66.92Q204.48 65.67 204.48 63.75Q202.75 66.63 200.35 68.04Q197.95 69.45 194.94 69.45M197.25 66.89Q199.36 66.89 201.18 65.67Q203.01 64.46 204.48 62.02L204.48 49.48Q203.71 50.57 202.24 51.30Q200.77 52.04 199.04 52.78Q197.31 53.51 195.74 54.50Q194.18 55.50 193.15 57.10Q192.13 58.70 192.13 61.26Q192.13 63.82 193.50 65.35Q194.88 66.89 197.25 66.89M195.01 19.85Q196.74 19.85 197.95 20.49Q199.17 21.13 200.16 21.96Q201.15 22.79 202.21 23.43Q203.26 24.07 204.67 24.07Q206.02 24.07 207.26 23.27Q208.51 22.47 209.60 20.68L210.50 21.13Q209.47 24.65 207.42 26.18Q205.38 27.72 202.94 27.72Q201.22 27.72 199.97 27.08Q198.72 26.44 197.73 25.58Q196.74 24.71 195.68 24.07Q194.62 23.43 193.22 23.43Q191.87 23.43 190.62 24.23Q189.38 25.03 188.29 26.89L187.39 26.44Q188.42 22.86 190.50 21.35Q192.58 19.85 195.01 19.85"/><path d="M233.54 35.14Q237.63 35.14 240.90 36.94Q244.16 38.73 246.11 42.57Q248.06 46.41 248.06 52.55Q248.06 58.70 246.11 62.50Q244.16 66.31 240.90 68.10Q237.63 69.90 233.54 69.90Q229.50 69.90 226.21 68.10Q222.91 66.31 220.96 62.50Q219.01 58.70 219.01 52.55Q219.01 46.41 220.96 42.57Q222.91 38.73 226.21 36.94Q229.50 35.14 233.54 35.14M233.54 36.42Q229.89 36.42 227.55 40.20Q225.22 43.98 225.22 52.55Q225.22 61.13 227.55 64.87Q229.89 68.62 233.54 68.62Q237.18 68.62 239.52 64.87Q241.86 61.13 241.86 52.55Q241.86 43.98 239.52 40.20Q237.18 36.42 233.54 36.42"/></g></svg></svg>