<svg xmlns="http://www.w3.org/2000/svg" width="302" height="79" viewBox="0 0 302 79" role="img" aria-label="Nutrição"><svg x="-1" y="0" xmlns="http://www.w3.org/2000/svg" width="304" height="79" viewBox="0 0 304 79"><g fill="#2F5D50"><path d="M19.37 62L4.65 62L4.65 17.20L17.06 17.20L39.85 44.46L34.09 44.46L34.09 17.20L48.81 17.20L48.81 62L36.39 62L13.61 34.74L19.37 34.74"/><path d="M69.79 62.64Q65.63 62.64 62.27 60.94Q58.91 59.25 56.99 55.63Q55.07 52.02 55.07 46.32L55.07 26.99L69.54 26.99L69.54 43.82Q69.54 47.54 70.75 49.01Q71.97 50.48 74.08 50.48Q75.36 50.48 76.48 49.81Q77.60 49.14 78.30 47.57Q79.01 46 79.01 43.44L79.01 26.99L93.47 26.99L93.47 62L79.71 62L79.71 51.89L82.46 54.64Q80.61 58.74 77.18 60.69Q73.76 62.64 69.79 62.64"/><path d="M117.10 62.64Q109.86 62.64 105.83 59.15Q101.80 55.66 101.80 48.43L101.80 19.12L116.26 19.12L116.26 48.30Q116.26 49.90 117.13 50.80Q117.99 51.70 119.27 51.70Q121.13 51.70 122.54 50.74L125.99 60.78Q124.33 61.74 121.99 62.19Q119.66 62.64 117.10 62.64M123.43 37.55L97 37.55L97 26.99L123.43 26.99"/><path d="M144.66 62L130.20 62L130.20 26.99L143.96 26.99L143.96 37.55L141.72 34.54Q143.32 30.45 146.84 28.40Q150.36 26.35 155.29 26.35L155.29 39.15Q154.33 39.02 153.59 38.96Q152.86 38.90 152.09 38.90Q148.82 38.90 146.74 40.59Q144.66 42.29 144.66 46.45"/><path d="M173.66 62L159.20 62L159.20 26.99L173.66 26.99L173.66 62M166.43 24.18Q162.46 24.18 160.10 22.06Q157.73 19.95 157.73 16.82Q157.73 13.68 160.10 11.57Q162.46 9.46 166.43 9.46Q170.40 9.46 172.77 11.44Q175.14 13.42 175.14 16.56Q175.14 19.89 172.77 22.03Q170.40 24.18 166.43 24.18"/><path d="M199.02 62.64Q193 62.64 188.33 60.34Q183.66 58.03 181 53.90Q178.34 49.78 178.34 44.46Q178.34 39.15 181 35.06Q183.66 30.96 188.33 28.66Q193 26.35 199.02 26.35Q205.42 26.35 209.96 29.10Q214.50 31.86 216.23 36.72L205.03 42.22Q203.94 39.79 202.38 38.70Q200.81 37.62 198.95 37.62Q197.35 37.62 195.98 38.38Q194.60 39.15 193.80 40.66Q193 42.16 193 44.46Q193 46.77 193.80 48.30Q194.60 49.84 195.98 50.61Q197.35 51.38 198.95 51.38Q200.81 51.38 202.38 50.29Q203.94 49.20 205.03 46.77L216.23 52.27Q214.50 57.14 209.96 59.89Q205.42 62.64 199.02 62.64M195.62 77.36Q194.02 77.36 192.23 76.98Q190.44 76.59 189.35 76.02L191.14 70.70Q191.85 70.96 192.84 71.22Q193.83 71.47 194.98 71.47Q196.65 71.47 197.35 71.02Q198.06 70.58 198.06 69.94Q198.06 69.36 197.45 69.01Q196.84 68.66 195.43 68.66L192.81 68.66L194.54 61.36L201.96 61.36L201.06 65.33Q204.07 65.71 205.29 67.25Q206.50 68.78 206.50 70.45Q206.50 73.65 203.53 75.50Q200.55 77.36 195.62 77.36"/><path d="M253.82 62L240.38 62L240.38 55.79L239.36 54.13L239.36 42.35Q239.36 39.79 237.79 38.45Q236.22 37.10 232.70 37.10Q230.34 37.10 227.90 37.84Q225.47 38.58 223.74 39.86L219.14 30.32Q222.21 28.40 226.50 27.38Q230.78 26.35 234.88 26.35Q243.90 26.35 248.86 30.38Q253.82 34.42 253.82 43.18L253.82 62M230.46 62.64Q226.18 62.64 223.30 61.17Q220.42 59.70 218.94 57.23Q217.47 54.77 217.47 51.76Q217.47 48.37 219.20 46Q220.93 43.63 224.48 42.42Q228.03 41.20 233.47 41.20L240.77 41.20L240.77 48.18L235.78 48.18Q233.47 48.18 232.42 48.91Q231.36 49.65 231.36 51.12Q231.36 52.34 232.29 53.14Q233.22 53.94 234.82 53.94Q236.29 53.94 237.54 53.14Q238.78 52.34 239.36 50.61L241.22 54.90Q240.38 58.80 237.70 60.72Q235.01 62.64 230.46 62.64M241.73 23.79Q239.94 23.79 238.56 23.22Q237.18 22.64 236.06 21.90Q234.94 21.17 234.05 20.59Q233.15 20.02 232.26 20.02Q231.04 20.02 230.27 20.85Q229.50 21.68 229.38 23.15L222.53 23.15Q222.66 18.10 224.96 15.09Q227.26 12.08 231.36 12.08Q233.15 12.08 234.53 12.66Q235.90 13.23 237.02 13.97Q238.14 14.70 239.07 15.28Q240 15.86 240.83 15.86Q242.11 15.86 242.88 15.06Q243.65 14.26 243.71 12.91L250.56 12.91Q250.50 17.78 248.16 20.78Q245.82 23.79 241.73 23.79"/><path d="M278.70 62.64Q272.74 62.64 268.17 60.30Q263.59 57.97 260.97 53.87Q258.34 49.78 258.34 44.46Q258.34 39.15 260.97 35.06Q263.59 30.96 268.17 28.66Q272.74 26.35 278.70 26.35Q284.65 26.35 289.26 28.66Q293.86 30.96 296.46 35.06Q299.05 39.15 299.05 44.46Q299.05 49.78 296.46 53.87Q293.86 57.97 289.26 60.30Q284.65 62.64 278.70 62.64M278.70 51.38Q280.30 51.38 281.58 50.61Q282.86 49.84 283.62 48.27Q284.39 46.70 284.39 44.46Q284.39 42.16 283.62 40.66Q282.86 39.15 281.58 38.38Q280.30 37.62 278.70 37.62Q277.10 37.62 275.82 38.38Q274.54 39.15 273.77 40.66Q273 42.16 273 44.46Q273 46.70 273.77 48.27Q274.54 49.84 275.82 50.61Q277.10 51.38 278.70 51.38"/></g></svg></svg>